<svg width="202" height="286" viewBox="0 0 202 286" fill="none" xmlns="http://www.w3.org/2000/svg">
<path d="M92.3383 60.1597L105.403 54.5621L119.975 50.4911C123.648 49.8922 108.418 64.9412 105.403 62.7041C95.3531 62.7041 103.448 81.3943 100.378 90.8668C98.8754 95.4973 96.824 98.3448 103.895 96.7986C107.351 96.0417 106.647 96.1297 109.925 93.7453C115.984 89.3346 114.17 88.6355 121.483 87.13C123.668 86.6743 151.178 84.9035 153.139 85.6034C154.144 90.1832 173.239 89.6743 182.786 91.7098C186.806 94.7631 182.283 95.7808 181.279 96.7986C175.822 95.7686 137.596 92.3592 135.05 92.7276C124.497 94.2542 121.01 101.991 111.873 107.143C103.709 112.034 109.848 125.225 108.418 133.998C106.047 148.532 106.971 169.191 115.955 181.78C125.044 194.5 145.029 195.024 159.284 200.167L176.159 205.611H64.4621L51.6048 204.797C70.7943 200.362 94.6197 194.552 98.8706 174.687C101.201 163.75 100.499 145.008 100.378 133.998C100.29 126.617 95.5767 113.026 92.3383 106.467C89.9677 101.666 88.1916 93.8941 83.796 90.8668C78.846 87.4571 75.4772 84.7209 72.2388 78.4791C69.5709 73.3441 68.2189 73.3904 64.199 70.3372C63.6285 66.3903 55.3101 54.0311 53.6467 50.4911C56.9815 50.7353 78.3585 76.6888 81.2835 78.4791C84.2085 80.2695 85.4013 84.8872 88.3183 85.6034C94.3371 87.0844 88.3183 62.7041 92.3383 60.1597Z" fill="#764134"/>
<path d="M53.6467 51C56.2718 53.5444 63.194 67.2839 64.199 68.8105C65.6926 71.0795 65.2612 71.2903 67.2139 72.3727C69.6809 73.7398 70.7313 75.094 71.7363 77.4614C74.2487 81.0235 73.8602 79.8656 76.7611 84.5856C82.2885 90.6921 77.9587 83.2627 85.3034 91.7098C94.7857 102.631 101.528 130.529 101.552 144.266C101.568 156.408 102.195 171.291 96.6498 182.513C93.4596 188.983 88.6944 192.514 83.0694 196.583C69.6332 206.3 61.1876 210.312 44.4973 208.082C41.6125 207.7 39.1616 208.009 36.4615 206.927L54.9438 199.611C57.9894 197.698 67.9991 196.067 70.7313 193.325C73.2545 190.802 81.4301 186.83 83.0694 183.656C87.7223 174.623 89.1829 172.296 89.8258 162.793L88.8208 144.982L89.8258 129.207C88.5321 116.162 91.271 102.307 79.2736 94.7631C77.5861 93.7051 68.2098 94.9703 66.2089 94.2542C62.189 95.7808 29.1712 90.7328 24.5024 90.6921C26.1498 84.8409 71.117 91.454 70.7313 84.5856C70.5304 80.9317 47.1144 54.5621 53.6467 51Z" fill="#5F332B"/>
<g filter="url(#filter0_i_5_29)">
<path d="M176 76.5C176 89.4787 165.255 100 152 100C138.745 100 128 89.4787 128 76.5C128 63.5213 138.745 53 152 53C165.255 53 176 63.5213 176 76.5Z" fill="#8DC63F"/>
<path d="M195 91.5C195 104.479 184.255 115 171 115C157.745 115 147 104.479 147 91.5C147 78.5213 157.745 68 171 68C184.255 68 195 78.5213 195 91.5Z" fill="#8DC63F"/>
<path d="M68 27.5C68 40.4787 57.2548 51 44 51C30.7452 51 20 40.4787 20 27.5C20 14.5213 30.7452 4 44 4C57.2548 4 68 14.5213 68 27.5Z" fill="#8DC63F"/>
<path d="M139 23.5C139 36.4787 128.255 47 115 47C101.745 47 91 36.4787 91 23.5C91 10.5213 101.745 0 115 0C128.255 0 139 10.5213 139 23.5Z" fill="#8DC63F"/>
<path d="M190 39.5C190 52.4787 179.255 63 166 63C152.745 63 142 52.4787 142 39.5C142 26.5213 152.745 16 166 16C179.255 16 190 26.5213 190 39.5Z" fill="#8DC63F"/>
<path d="M48 85.5C48 98.4787 37.2548 109 24 109C10.7452 109 0 98.4787 0 85.5C0 72.5213 10.7452 62 24 62C37.2548 62 48 72.5213 48 85.5Z" fill="#8DC63F"/>
<path d="M198 59.5C198 72.4787 187.255 83 174 83C160.745 83 150 72.4787 150 59.5C150 46.5213 160.745 36 174 36C187.255 36 198 46.5213 198 59.5Z" fill="#8DC63F"/>
<path d="M86 47.5C86 60.4787 75.2548 71 62 71C48.7452 71 38 60.4787 38 47.5C38 34.5213 48.7452 24 62 24C75.2548 24 86 34.5213 86 47.5Z" fill="#8DC63F"/>
<path d="M128 47.5C128 60.4787 117.255 71 104 71C90.7452 71 80 60.4787 80 47.5C80 34.5213 90.7452 24 104 24C117.255 24 128 34.5213 128 47.5Z" fill="#8DC63F"/>
<path d="M107 35.5C107 48.4787 96.2548 59 83 59C69.7452 59 59 48.4787 59 35.5C59 22.5213 69.7452 12 83 12C96.2548 12 107 22.5213 107 35.5Z" fill="#8DC63F"/>
<path d="M56 97.5C56 110.479 45.2548 121 32 121C18.7452 121 8 110.479 8 97.5C8 84.5213 18.7452 74 32 74C45.2548 74 56 84.5213 56 97.5Z" fill="#8DC63F"/>
</g>
<g filter="url(#filter1_i_5_29)">
<path d="M0 204.591H202V247.525C202 268.447 185.85 285.407 165.929 285.407H36.0714C16.1497 285.407 0 268.447 0 247.525V204.591Z" fill="#978CAC"/>
<path d="M0 204.591H202V227.321H0V204.591Z" fill="#BAAAD4"/>
</g>
<defs>
<filter id="filter0_i_5_29" x="0" y="0" width="198" height="121" filterUnits="userSpaceOnUse" color-interpolation-filters="sRGB">
<feFlood flood-opacity="0" result="BackgroundImageFix"/>
<feBlend mode="normal" in="SourceGraphic" in2="BackgroundImageFix" result="shape"/>
<feColorMatrix in="SourceAlpha" type="matrix" values="0 0 0 0 0 0 0 0 0 0 0 0 0 0 0 0 0 0 127 0" result="hardAlpha"/>
<feOffset dx="8"/>
<feComposite in2="hardAlpha" operator="arithmetic" k2="-1" k3="1"/>
<feColorMatrix type="matrix" values="0 0 0 0 0 0 0 0 0 0 0 0 0 0 0 0 0 0 0.14 0"/>
<feBlend mode="normal" in2="shape" result="effect1_innerShadow_5_29"/>
</filter>
<filter id="filter1_i_5_29" x="0" y="204.591" width="202" height="80.8165" filterUnits="userSpaceOnUse" color-interpolation-filters="sRGB">
<feFlood flood-opacity="0" result="BackgroundImageFix"/>
<feBlend mode="normal" in="SourceGraphic" in2="BackgroundImageFix" result="shape"/>
<feColorMatrix in="SourceAlpha" type="matrix" values="0 0 0 0 0 0 0 0 0 0 0 0 0 0 0 0 0 0 127 0" result="hardAlpha"/>
<feOffset dx="14"/>
<feComposite in2="hardAlpha" operator="arithmetic" k2="-1" k3="1"/>
<feColorMatrix type="matrix" values="0 0 0 0 0 0 0 0 0 0 0 0 0 0 0 0 0 0 0.25 0"/>
<feBlend mode="normal" in2="shape" result="effect1_innerShadow_5_29"/>
</filter>
</defs>
</svg>
