<svg width="255" height="312" viewBox="0 0 255 312" fill="none" xmlns="http://www.w3.org/2000/svg">
<path d="M123.246 92H124.845C132.193 102.875 133.105 100.148 138.438 105.593C128.459 106.649 118.752 116.276 115.698 125.583C114.202 130.133 115.41 141.735 122.446 140.216C125.885 139.472 134.376 132.524 137.639 130.181C143.668 125.847 150.352 122.913 157.629 121.433C159.804 120.985 165.201 119.81 167.152 120.498C169.639 121.369 171.846 125.143 173.757 127.11C175.412 128.806 179.09 131.212 179.93 132.924C181.121 135.354 179.002 139.712 180.817 147.316C171.438 145.909 162.722 142.255 153.631 147.316C145.507 152.122 142.996 160.142 141.573 168.762C139.214 183.042 138.918 195.572 147.858 207.942C156.901 220.44 171.43 227.924 185.615 232.977L202.406 238.327H91.2618L78.4682 237.527C97.5627 233.169 113.411 219.464 117.641 199.946C119.959 189.199 118.568 178.781 118.448 167.962C118.36 160.71 116.225 148.02 113.003 141.575C110.644 136.858 106.83 132.236 102.456 129.261C97.5307 125.911 93.2369 125.319 90.0145 119.186C87.3598 114.141 88.5432 110.479 87.8236 105.593C87.2559 101.715 85.7206 98.6767 84.0654 95.1984C87.3838 95.4383 90.7501 95.4543 93.6606 97.2134C96.5712 98.9725 101.153 103.57 104.055 104.274C110.044 105.729 120.095 96.3898 123.246 92Z" fill="#764134"/>
<path d="M62.6003 95.536C65.7987 95.9598 70.8442 97.1112 73.7947 96.8793C76.4654 96.6634 83.5338 94.5605 85.4769 95.6239C87.9316 96.9673 88.7073 101.029 89.0911 103.532C89.9067 108.937 89.299 115.678 92.1855 120.316C96.5116 127.248 103.124 126.417 110.433 134.716C119.868 145.447 120.148 161.999 120.172 175.496C120.188 187.426 120.811 202.05 115.294 213.076C112.12 219.433 107.378 222.903 101.781 226.901C88.4114 236.448 80.0076 240.39 63.3999 238.199C60.5293 237.824 58.0906 238.127 55.4039 237.064L73.7947 229.876C76.8252 227.997 81.4709 222.967 84.1895 220.272C86.7003 217.794 89.8347 215.363 91.4659 212.244C96.0958 203.369 95.616 196.828 96.2557 187.49L96.9594 180.294L95.5201 161.903C94.2328 149.085 91.3299 135.604 79.3919 128.192C77.7128 127.152 74.1865 126.001 72.1955 125.297C67.7657 123.722 66.4464 123.562 61.8007 123.522C63.4399 117.773 66.0946 114.279 65.7108 107.53C65.5109 103.94 63.4639 99.3261 62.6003 95.536Z" fill="#5F332B"/>
<g filter="url(#filter0_i_13_83)">
<circle cx="45" cy="72" r="25" fill="#8DC63F"/>
</g>
<circle cx="192" cy="147" r="25" fill="#8DC63F"/>
<circle cx="79" cy="46" r="25" fill="#8DC63F"/>
<circle cx="75" cy="86" r="25" fill="#8DC63F"/>
<circle cx="104" cy="61" r="25" fill="#8DC63F"/>
<circle cx="137" cy="83" r="25" fill="#8DC63F"/>
<circle cx="131" cy="36" r="36" fill="#8DC63F"/>
<circle cx="50" cy="115" r="25" fill="#8DC63F"/>
<g filter="url(#filter1_i_13_83)">
<circle cx="30" cy="140" r="25" fill="#8DC63F"/>
</g>
<g filter="url(#filter2_i_13_83)">
<circle cx="25" cy="97" r="25" fill="#8DC63F"/>
</g>
<circle cx="175" cy="71" r="44" fill="#8DC63F"/>
<circle cx="224" cy="72" r="25" fill="#8DC63F"/>
<ellipse cx="223.5" cy="115" rx="31.5" ry="32" fill="#8DC63F"/>
<circle cx="184" cy="117" r="25" fill="#8DC63F"/>
<path d="M204 144.667C204 148.203 202.67 151.594 200.302 154.095C197.934 156.595 194.723 158 191.374 158C188.026 158 184.814 156.595 182.446 154.095C180.078 151.594 179.001 144.667 179.001 144.667C179.001 144.667 178.874 142 182.157 142C185.44 142 185.061 144.667 185.061 144.667C185.061 146.435 185.726 148.13 186.91 149.381C188.094 150.631 189.7 151.333 191.374 151.333C193.048 151.333 194.654 150.631 195.838 149.381C197.022 148.13 197.687 146.435 197.687 144.667C197.687 144.667 198.155 142 200.843 142C203.531 142 204 144.667 204 144.667Z" fill="#728E36"/>
<path d="M246 110.667C246 114.203 244.67 117.594 242.302 120.095C239.934 122.595 236.723 124 233.374 124C230.026 124 226.814 122.595 224.446 120.095C222.078 117.594 221.001 110.667 221.001 110.667C221.001 110.667 220.874 108 224.157 108C227.44 108 227.061 110.667 227.061 110.667C227.061 112.435 227.726 114.13 228.91 115.381C230.094 116.631 231.7 117.333 233.374 117.333C235.048 117.333 236.654 116.631 237.838 115.381C239.022 114.13 239.687 112.435 239.687 110.667C239.687 110.667 240.155 108 242.843 108C245.531 108 246 110.667 246 110.667Z" fill="#728E36"/>
<path d="M175 74.6667C175 78.2029 173.67 81.5943 171.302 84.0948C168.934 86.5952 165.723 88 162.374 88C159.026 88 155.814 86.5953 153.446 84.0948C151.078 81.5943 150.001 74.6667 150.001 74.6667C150.001 74.6667 149.874 72 153.157 72C156.44 72 156.061 74.6667 156.061 74.6667C156.061 76.4348 156.726 78.1305 157.91 79.3807C159.094 80.631 160.7 81.3333 162.374 81.3333C164.048 81.3333 165.654 80.631 166.838 79.3807C168.022 78.1305 168.687 76.4348 168.687 74.6667C168.687 74.6667 169.155 72 171.843 72C174.531 72 175 74.6667 175 74.6667Z" fill="#728E36"/>
<path d="M45 92.6667C45 96.2029 43.6698 99.5943 41.302 102.095C38.9342 104.595 35.7227 106 32.3741 106C29.0255 106 25.8141 104.595 23.4463 102.095C21.0784 99.5943 20.0006 92.6667 20.0006 92.6667C20.0006 92.6667 19.8744 90 23.1571 90C26.4398 90 26.0611 92.6667 26.0611 92.6667C26.0612 94.4348 26.7263 96.1305 27.9102 97.3807C29.0941 98.631 30.6998 99.3333 32.3741 99.3333C34.0484 99.3333 35.6541 98.631 36.838 97.3807C38.0219 96.1305 38.687 94.4348 38.687 92.6667C38.687 92.6667 39.1551 90 41.8431 90C44.531 90 45 92.6667 45 92.6667Z" fill="#728E36"/>
<path d="M100 47.6667C100 51.2029 98.6698 54.5943 96.302 57.0948C93.9342 59.5952 90.7227 61 87.3741 61C84.0255 61 80.8141 59.5953 78.4463 57.0948C76.0784 54.5943 75.0006 47.6667 75.0006 47.6667C75.0006 47.6667 74.8744 45 78.1571 45C81.4398 45 81.0611 47.6667 81.0611 47.6667C81.0612 49.4348 81.7263 51.1305 82.9102 52.3807C84.0941 53.631 85.6998 54.3333 87.3741 54.3333C89.0484 54.3333 90.6541 53.631 91.838 52.3807C93.0219 51.1305 93.687 49.4348 93.687 47.6667C93.687 47.6667 94.1551 45 96.8431 45C99.531 45 100 47.6667 100 47.6667Z" fill="#728E36"/>
<path d="M236 63.6667C236 67.2029 234.67 70.5943 232.302 73.0948C229.934 75.5952 226.723 77 223.374 77C220.026 77 216.814 75.5953 214.446 73.0948C212.078 70.5943 211.001 63.6667 211.001 63.6667C211.001 63.6667 210.874 61 214.157 61C217.44 61 217.061 63.6667 217.061 63.6667C217.061 65.4348 217.726 67.1305 218.91 68.3807C220.094 69.631 221.7 70.3333 223.374 70.3333C225.048 70.3333 226.654 69.631 227.838 68.3807C229.022 67.1305 229.687 65.4348 229.687 63.6667C229.687 63.6667 230.155 61 232.843 61C235.531 61 236 63.6667 236 63.6667Z" fill="#728E36"/>
<g filter="url(#filter3_i_13_83)">
<path d="M30 232.411H231V274.597C231 295.154 214.93 311.819 195.107 311.819H65.8929C46.0698 311.819 30 295.154 30 274.597V232.411Z" fill="#978CAC"/>
<path d="M30 232.411H231V254.745H30V232.411Z" fill="#BAAAD4"/>
</g>
<defs>
<filter id="filter0_i_13_83" x="20" y="47" width="50" height="50" filterUnits="userSpaceOnUse" color-interpolation-filters="sRGB">
<feFlood flood-opacity="0" result="BackgroundImageFix"/>
<feBlend mode="normal" in="SourceGraphic" in2="BackgroundImageFix" result="shape"/>
<feColorMatrix in="SourceAlpha" type="matrix" values="0 0 0 0 0 0 0 0 0 0 0 0 0 0 0 0 0 0 127 0" result="hardAlpha"/>
<feOffset dx="17"/>
<feComposite in2="hardAlpha" operator="arithmetic" k2="-1" k3="1"/>
<feColorMatrix type="matrix" values="0 0 0 0 0 0 0 0 0 0 0 0 0 0 0 0 0 0 0.23 0"/>
<feBlend mode="normal" in2="shape" result="effect1_innerShadow_13_83"/>
</filter>
<filter id="filter1_i_13_83" x="5" y="115" width="50" height="50" filterUnits="userSpaceOnUse" color-interpolation-filters="sRGB">
<feFlood flood-opacity="0" result="BackgroundImageFix"/>
<feBlend mode="normal" in="SourceGraphic" in2="BackgroundImageFix" result="shape"/>
<feColorMatrix in="SourceAlpha" type="matrix" values="0 0 0 0 0 0 0 0 0 0 0 0 0 0 0 0 0 0 127 0" result="hardAlpha"/>
<feOffset dx="17"/>
<feComposite in2="hardAlpha" operator="arithmetic" k2="-1" k3="1"/>
<feColorMatrix type="matrix" values="0 0 0 0 0 0 0 0 0 0 0 0 0 0 0 0 0 0 0.23 0"/>
<feBlend mode="normal" in2="shape" result="effect1_innerShadow_13_83"/>
</filter>
<filter id="filter2_i_13_83" x="0" y="72" width="50" height="50" filterUnits="userSpaceOnUse" color-interpolation-filters="sRGB">
<feFlood flood-opacity="0" result="BackgroundImageFix"/>
<feBlend mode="normal" in="SourceGraphic" in2="BackgroundImageFix" result="shape"/>
<feColorMatrix in="SourceAlpha" type="matrix" values="0 0 0 0 0 0 0 0 0 0 0 0 0 0 0 0 0 0 127 0" result="hardAlpha"/>
<feOffset dx="17"/>
<feComposite in2="hardAlpha" operator="arithmetic" k2="-1" k3="1"/>
<feColorMatrix type="matrix" values="0 0 0 0 0 0 0 0 0 0 0 0 0 0 0 0 0 0 0.23 0"/>
<feBlend mode="normal" in2="shape" result="effect1_innerShadow_13_83"/>
</filter>
<filter id="filter3_i_13_83" x="30" y="232.411" width="201" height="79.4074" filterUnits="userSpaceOnUse" color-interpolation-filters="sRGB">
<feFlood flood-opacity="0" result="BackgroundImageFix"/>
<feBlend mode="normal" in="SourceGraphic" in2="BackgroundImageFix" result="shape"/>
<feColorMatrix in="SourceAlpha" type="matrix" values="0 0 0 0 0 0 0 0 0 0 0 0 0 0 0 0 0 0 127 0" result="hardAlpha"/>
<feOffset dx="14"/>
<feComposite in2="hardAlpha" operator="arithmetic" k2="-1" k3="1"/>
<feColorMatrix type="matrix" values="0 0 0 0 0 0 0 0 0 0 0 0 0 0 0 0 0 0 0.25 0"/>
<feBlend mode="normal" in2="shape" result="effect1_innerShadow_13_83"/>
</filter>
</defs>
</svg>
