<svg width="2265" height="48" viewBox="0 0 2265 48" fill="none" xmlns="http://www.w3.org/2000/svg">
<g clip-path="url(#clip0_30_20)">
<path d="M0 11.2L17.9026 20L34.6502 6.66667L40.4253 23.7333L47.9329 13.6L55.4404 23.7333L71.6105 11.2L87.7806 23.7333L101.641 1.33333L107.416 21.6L113.191 13.6L118.966 21.6L128.206 6.66667L132.249 17.0667L146.686 13.6L151.306 21.6L168.632 4.8L171.519 20L182.492 11.2L191.153 20L198.084 13.6L203.281 20L219.452 4.8L226.959 17.0667L239.664 0V9.06667L243.13 17.0667L250.059 6.66667L253.524 21.6L266.229 6.66667V17.0667L274.892 1.33333L285.864 23.7333L292.217 9.06667L304.923 20L316.472 1.33333L326.289 20L343.615 9.06667L348.812 20L358.63 4.8L369.025 21.6L378.843 11.2L388.66 20L397.323 4.8V48H0V11.2Z" fill="#A1CC82"/>
</g>
<g clip-path="url(#clip1_30_20)">
<path d="M379 11.2L397.227 20L414.279 6.66667L420.158 23.7333L427.802 13.6L435.446 23.7333L451.909 11.2L468.372 23.7333L482.484 1.33333L488.364 21.6L494.243 13.6L500.124 21.6L509.53 6.66667L513.647 17.0667L528.346 13.6L533.05 21.6L550.69 4.8L553.629 20L564.801 11.2L573.62 20L580.676 13.6L585.967 20L602.431 4.8L610.075 17.0667L623.01 0V9.06667L626.539 17.0667L633.594 6.66667L637.121 21.6L650.057 6.66667V17.0667L658.877 1.33333L670.048 23.7333L676.517 9.06667L689.452 20L701.211 1.33333L711.207 20L728.846 9.06667L734.138 20L744.134 4.8L754.717 21.6L764.713 11.2L774.708 20L783.528 4.8V48H379V11.2Z" fill="#A1CC82"/>
</g>
<g clip-path="url(#clip2_30_20)">
<path d="M765 11.2L782.207 20L798.304 6.66667L803.854 23.7333L811.07 13.6L818.286 23.7333L833.828 11.2L849.369 23.7333L862.691 1.33333L868.242 21.6L873.792 13.6L879.343 21.6L888.223 6.66667L892.11 17.0667L905.986 13.6L910.426 21.6L927.079 4.8L929.854 20L940.4 11.2L948.725 20L955.386 13.6L960.381 20L975.924 4.8L983.139 17.0667L995.35 0V9.06667L998.682 17.0667L1005.34 6.66667L1008.67 21.6L1020.88 6.66667V17.0667L1029.21 1.33333L1039.76 23.7333L1045.86 9.06667L1058.07 20L1069.17 1.33333L1078.61 20L1095.26 9.06667L1100.26 20L1109.69 4.8L1119.68 21.6L1129.12 11.2L1138.56 20L1146.88 4.8V48H765V11.2Z" fill="#A1CC82"/>
</g>
<g clip-path="url(#clip3_30_20)">
<path d="M1129 11.2L1146.9 20L1163.65 6.66667L1169.43 23.7333L1176.93 13.6L1184.44 23.7333L1200.61 11.2L1216.78 23.7333L1230.64 1.33333L1236.42 21.6L1242.19 13.6L1247.97 21.6L1257.21 6.66667L1261.25 17.0667L1275.69 13.6L1280.31 21.6L1297.63 4.8L1300.52 20L1311.49 11.2L1320.15 20L1327.08 13.6L1332.28 20L1348.45 4.8L1355.96 17.0667L1368.66 0V9.06667L1372.13 17.0667L1379.06 6.66667L1382.52 21.6L1395.23 6.66667V17.0667L1403.89 1.33333L1414.86 23.7333L1421.22 9.06667L1433.92 20L1445.47 1.33333L1455.29 20L1472.62 9.06667L1477.81 20L1487.63 4.8L1498.03 21.6L1507.84 11.2L1517.66 20L1526.32 4.8V48H1129V11.2Z" fill="#A1CC82"/>
</g>
<g clip-path="url(#clip4_30_20)">
<path d="M1508 11.2L1526.23 20L1543.28 6.66667L1549.16 23.7333L1556.8 13.6L1564.45 23.7333L1580.91 11.2L1597.37 23.7333L1611.48 1.33333L1617.36 21.6L1623.24 13.6L1629.12 21.6L1638.53 6.66667L1642.65 17.0667L1657.35 13.6L1662.05 21.6L1679.69 4.8L1682.63 20L1693.8 11.2L1702.62 20L1709.68 13.6L1714.97 20L1731.43 4.8L1739.07 17.0667L1752.01 0V9.06667L1755.54 17.0667L1762.59 6.66667L1766.12 21.6L1779.06 6.66667V17.0667L1787.88 1.33333L1799.05 23.7333L1805.52 9.06667L1818.45 20L1830.21 1.33333L1840.21 20L1857.85 9.06667L1863.14 20L1873.13 4.8L1883.72 21.6L1893.71 11.2L1903.71 20L1912.53 4.8V48H1508V11.2Z" fill="#A1CC82"/>
</g>
<g clip-path="url(#clip5_30_20)">
<path d="M1894 11.2L1911.21 20L1927.3 6.66667L1932.85 23.7333L1940.07 13.6L1947.29 23.7333L1962.83 11.2L1978.37 23.7333L1991.69 1.33333L1997.24 21.6L2002.79 13.6L2008.34 21.6L2017.22 6.66667L2021.11 17.0667L2034.99 13.6L2039.43 21.6L2056.08 4.8L2058.85 20L2069.4 11.2L2077.73 20L2084.39 13.6L2089.38 20L2104.92 4.8L2112.14 17.0667L2124.35 0V9.06667L2127.68 17.0667L2134.34 6.66667L2137.67 21.6L2149.88 6.66667V17.0667L2158.21 1.33333L2168.76 23.7333L2174.86 9.06667L2187.07 20L2198.17 1.33333L2207.61 20L2224.26 9.06667L2229.26 20L2238.69 4.8L2248.68 21.6L2258.12 11.2L2267.56 20L2275.88 4.8V48H1894V11.2Z" fill="#A1CC82"/>
</g>
<defs>
<clipPath id="clip0_30_20">
<rect width="386" height="48" fill="white"/>
</clipPath>
<clipPath id="clip1_30_20">
<rect width="393" height="48" fill="white" transform="translate(379)"/>
</clipPath>
<clipPath id="clip2_30_20">
<rect width="371" height="48" fill="white" transform="translate(765)"/>
</clipPath>
<clipPath id="clip3_30_20">
<rect width="386" height="48" fill="white" transform="translate(1129)"/>
</clipPath>
<clipPath id="clip4_30_20">
<rect width="393" height="48" fill="white" transform="translate(1508)"/>
</clipPath>
<clipPath id="clip5_30_20">
<rect width="371" height="48" fill="white" transform="translate(1894)"/>
</clipPath>
</defs>
</svg>
