<svg width="178" height="512" viewBox="0 0 178 512" fill="none" xmlns="http://www.w3.org/2000/svg">
<path d="M69.9991 189L78.998 192.07C88.9768 194.769 96.7658 192.67 105.995 189V237.994L113.994 238.994C112.524 257.101 108.094 289.137 102.485 305.985C100.405 312.205 96.5958 324.213 88.9968 325.203C80.8678 326.253 76.3483 312.975 74.3486 306.985C69.3992 292.117 63.01 254.532 63 238.994L69.9991 237.994V189Z" fill="#7F8C8D"/>
<path d="M108.986 237.971C116.235 238.301 126.084 240.37 132.983 242.64C138.763 244.55 144.972 247.269 149.981 250.739C184.547 274.656 178.748 327.139 171.579 362.955L166.399 385.952L158.31 413.949L144.732 448.944C136.233 466.792 128.204 483.72 113.986 497.938C107.027 504.897 100.317 510.666 89.9888 510.926C68.0715 511.456 53.9033 489.839 44.0045 472.941C27.9665 445.545 16.8079 412.699 9.12886 381.953C5.29934 366.644 0.0199978 340.398 2.52161e-07 324.96V306.962C0.0299965 286.455 8.009 264.307 24.9969 251.899C29.8063 248.379 35.4556 245.71 40.9949 243.58C46.4442 241.49 61.7523 237.051 66.9916 238.97H62.9921C63.1221 253.209 69.9713 293.454 74.6807 306.962C76.4704 312.071 82.1697 326.44 89.2688 324.76C96.158 323.14 100.337 310.961 102.317 304.962C106.947 290.884 109.756 272.756 111.706 257.968L113.986 238.97L108.986 237.971Z" fill="#95A5A5"/>
<path d="M108.718 238C115.967 238.33 125.815 240.4 132.714 242.669C138.494 244.579 144.703 247.299 149.712 250.768C184.278 274.685 178.479 327.169 171.31 362.984L166.13 385.982L158.041 413.978L144.463 448.974C135.964 466.821 127.935 483.749 113.717 497.967C106.758 504.927 99.7311 510.956 89.7199 510.956C91.5097 516.065 89 331.5 89 324.789C95.8891 323.169 100.069 310.991 102.048 304.992C106.678 290.913 109.487 272.786 111.437 257.997L113.717 239L108.718 238Z" fill="#C1D5D5"/>
<path d="M79.9966 0.642151C105.004 -3.31735 123.951 11.3008 123.991 37.1176V158.102C123.961 164.732 123.111 169.061 120.202 175.1C111.953 192.248 92.0551 197.378 74.9972 191.408C71.6677 190.238 67.8281 188.719 65.0385 186.549C56.4796 179.89 53.02 169.531 53 159.102V35.1178C53.03 17.3601 62.9088 5.23158 79.9966 0.642151ZM87.9956 26.7889C75.1672 29.1086 78.1369 44.6966 88.9955 43.9467C98.4643 43.2868 100.984 28.5087 87.9956 26.7889Z" fill="#805333"/>
</svg>
